<mxfile host="65bd71144e">
    <diagram id="Np2yEiep51JCImMB4A_G" name="第 1 页">
        <mxGraphModel dx="1014" dy="577" grid="1" gridSize="10" guides="1" tooltips="1" connect="1" arrows="1" fold="1" page="1" pageScale="1" pageWidth="1169" pageHeight="1654" math="0" shadow="0">
            <root>
                <mxCell id="0"/>
                <mxCell id="1" parent="0"/>
                <mxCell id="83" value="" style="fontStyle=1;align=center;verticalAlign=top;childLayout=stackLayout;horizontal=1;horizontalStack=0;resizeParent=1;resizeParentMax=0;resizeLast=0;marginBottom=0;" parent="1" vertex="1">
                    <mxGeometry x="240" y="10" width="440" height="708" as="geometry"/>
                </mxCell>
                <mxCell id="84" value="&amp;lt;&amp;lt;组件&amp;gt;&amp;gt;&lt;br&gt;基于Kubernetes的水平扩缩容自动控制系统" style="html=1;align=left;spacingLeft=4;verticalAlign=top;strokeColor=none;fillColor=none;" parent="83" vertex="1">
                    <mxGeometry width="440" height="40" as="geometry"/>
                </mxCell>
                <mxCell id="85" value="" style="shape=module;jettyWidth=10;jettyHeight=4;" parent="84" vertex="1">
                    <mxGeometry x="1" width="16" height="20" relative="1" as="geometry">
                        <mxPoint x="-25" y="9" as="offset"/>
                    </mxGeometry>
                </mxCell>
                <mxCell id="86" value="" style="line;strokeWidth=1;fillColor=none;align=left;verticalAlign=middle;spacingTop=-1;spacingLeft=3;spacingRight=3;rotatable=0;labelPosition=right;points=[];portConstraint=eastwest;" parent="83" vertex="1">
                    <mxGeometry y="40" width="440" height="8" as="geometry"/>
                </mxCell>
                <mxCell id="88" value="&lt;br&gt;&lt;br&gt;&lt;br&gt;&lt;br&gt;&lt;br&gt;&lt;br&gt;&lt;br&gt;&lt;br&gt;&lt;br&gt;&lt;br&gt;&lt;br&gt;&lt;br&gt;&lt;br&gt;&lt;br&gt;&lt;br&gt;&lt;br&gt;&lt;br&gt;&lt;br&gt;&lt;br&gt;&lt;br&gt;&lt;br&gt;&lt;br&gt;&lt;br&gt;&lt;br&gt;&lt;br&gt;&lt;br&gt;&lt;br&gt;&lt;br&gt;&lt;br&gt;&lt;br&gt;&lt;br&gt;&lt;br&gt;&lt;br&gt;" style="html=1;align=left;spacingLeft=4;verticalAlign=top;strokeColor=none;fillColor=none;" parent="83" vertex="1">
                    <mxGeometry y="48" width="440" height="652" as="geometry"/>
                </mxCell>
                <mxCell id="89" value="" style="line;strokeWidth=1;fillColor=none;align=left;verticalAlign=middle;spacingTop=-1;spacingLeft=3;spacingRight=3;rotatable=0;labelPosition=right;points=[];portConstraint=eastwest;" parent="83" vertex="1">
                    <mxGeometry y="700" width="440" height="8" as="geometry"/>
                </mxCell>
                <mxCell id="2" value="" style="fontStyle=1;align=center;verticalAlign=top;childLayout=stackLayout;horizontal=1;horizontalStack=0;resizeParent=1;resizeParentMax=0;resizeLast=0;marginBottom=0;" parent="1" vertex="1">
                    <mxGeometry x="60" y="280" width="140" height="106" as="geometry"/>
                </mxCell>
                <mxCell id="3" value="&amp;lt;&amp;lt;组件&amp;gt;&amp;gt;&lt;br&gt;Kubernetes控制平面" style="html=1;align=left;spacingLeft=4;verticalAlign=top;strokeColor=none;fillColor=none;" parent="2" vertex="1">
                    <mxGeometry width="140" height="40" as="geometry"/>
                </mxCell>
                <mxCell id="4" value="" style="shape=module;jettyWidth=10;jettyHeight=4;" parent="3" vertex="1">
                    <mxGeometry x="1" width="16" height="20" relative="1" as="geometry">
                        <mxPoint x="-25" y="9" as="offset"/>
                    </mxGeometry>
                </mxCell>
                <mxCell id="5" value="" style="line;strokeWidth=1;fillColor=none;align=left;verticalAlign=middle;spacingTop=-1;spacingLeft=3;spacingRight=3;rotatable=0;labelPosition=right;points=[];portConstraint=eastwest;" parent="2" vertex="1">
                    <mxGeometry y="40" width="140" height="8" as="geometry"/>
                </mxCell>
                <mxCell id="6" value="provided interfaces" style="html=1;align=center;spacingLeft=4;verticalAlign=top;strokeColor=none;fillColor=none;" parent="2" vertex="1">
                    <mxGeometry y="48" width="140" height="25" as="geometry"/>
                </mxCell>
                <mxCell id="7" value="Kubernetes API" style="html=1;align=left;spacingLeft=4;verticalAlign=top;strokeColor=none;fillColor=none;" parent="2" vertex="1">
                    <mxGeometry y="73" width="140" height="25" as="geometry"/>
                </mxCell>
                <mxCell id="8" value="" style="line;strokeWidth=1;fillColor=none;align=left;verticalAlign=middle;spacingTop=-1;spacingLeft=3;spacingRight=3;rotatable=0;labelPosition=right;points=[];portConstraint=eastwest;" parent="2" vertex="1">
                    <mxGeometry y="98" width="140" height="8" as="geometry"/>
                </mxCell>
                <mxCell id="11" value="" style="fontStyle=1;align=center;verticalAlign=top;childLayout=stackLayout;horizontal=1;horizontalStack=0;resizeParent=1;resizeParentMax=0;resizeLast=0;marginBottom=0;" parent="1" vertex="1">
                    <mxGeometry x="490" y="70" width="140" height="360" as="geometry"/>
                </mxCell>
                <mxCell id="12" value="自动扩缩容控制平面" style="html=1;align=left;spacingLeft=4;verticalAlign=top;strokeColor=none;fillColor=none;" parent="11" vertex="1">
                    <mxGeometry width="140" height="40" as="geometry"/>
                </mxCell>
                <mxCell id="13" value="" style="shape=module;jettyWidth=10;jettyHeight=4;" parent="12" vertex="1">
                    <mxGeometry x="1" width="16" height="20" relative="1" as="geometry">
                        <mxPoint x="-25" y="9" as="offset"/>
                    </mxGeometry>
                </mxCell>
                <mxCell id="14" value="" style="line;strokeWidth=1;fillColor=none;align=left;verticalAlign=middle;spacingTop=-1;spacingLeft=3;spacingRight=3;rotatable=0;labelPosition=right;points=[];portConstraint=eastwest;" parent="11" vertex="1">
                    <mxGeometry y="40" width="140" height="8" as="geometry"/>
                </mxCell>
                <mxCell id="15" value="provided interfaces" style="html=1;align=center;spacingLeft=4;verticalAlign=top;strokeColor=none;fillColor=none;" parent="11" vertex="1">
                    <mxGeometry y="48" width="140" height="25" as="geometry"/>
                </mxCell>
                <mxCell id="16" value="FindServices&lt;br&gt;RegisterService&lt;br&gt;RegisterServiceResult&lt;br&gt;DeleteService&lt;br&gt;&lt;br&gt;FetchSerialData&lt;br&gt;FindModels&lt;br&gt;AddModel&lt;br&gt;AddModelResult" style="html=1;align=left;spacingLeft=4;verticalAlign=top;strokeColor=none;fillColor=none;" parent="11" vertex="1">
                    <mxGeometry y="73" width="140" height="147" as="geometry"/>
                </mxCell>
                <mxCell id="17" value="" style="line;strokeWidth=1;fillColor=none;align=left;verticalAlign=middle;spacingTop=-1;spacingLeft=3;spacingRight=3;rotatable=0;labelPosition=right;points=[];portConstraint=eastwest;" parent="11" vertex="1">
                    <mxGeometry y="220" width="140" height="8" as="geometry"/>
                </mxCell>
                <mxCell id="18" value="required interfaces" style="html=1;align=center;spacingLeft=4;verticalAlign=top;strokeColor=none;fillColor=none;" parent="11" vertex="1">
                    <mxGeometry y="228" width="140" height="25" as="geometry"/>
                </mxCell>
                <mxCell id="19" value="PrometheusReload&lt;br&gt;LaunchPessureTest&lt;br&gt;AddNewModel&lt;br&gt;FetchSerialData&lt;br&gt;AddService&lt;br&gt;DeleteService" style="html=1;align=left;spacingLeft=4;verticalAlign=top;strokeColor=none;fillColor=none;" parent="11" vertex="1">
                    <mxGeometry y="253" width="140" height="107" as="geometry"/>
                </mxCell>
                <mxCell id="20" value="" style="fontStyle=1;align=center;verticalAlign=top;childLayout=stackLayout;horizontal=1;horizontalStack=0;resizeParent=1;resizeParentMax=0;resizeLast=0;marginBottom=0;" parent="1" vertex="1">
                    <mxGeometry x="730" y="280" width="140" height="128" as="geometry"/>
                </mxCell>
                <mxCell id="21" value="&amp;lt;&amp;lt;组件&amp;gt;&amp;gt;&lt;br&gt;自动扩缩容系统" style="html=1;align=left;spacingLeft=4;verticalAlign=top;strokeColor=none;fillColor=none;" parent="20" vertex="1">
                    <mxGeometry width="140" height="40" as="geometry"/>
                </mxCell>
                <mxCell id="22" value="" style="shape=module;jettyWidth=10;jettyHeight=4;" parent="21" vertex="1">
                    <mxGeometry x="1" width="16" height="20" relative="1" as="geometry">
                        <mxPoint x="-25" y="9" as="offset"/>
                    </mxGeometry>
                </mxCell>
                <mxCell id="23" value="" style="line;strokeWidth=1;fillColor=none;align=left;verticalAlign=middle;spacingTop=-1;spacingLeft=3;spacingRight=3;rotatable=0;labelPosition=right;points=[];portConstraint=eastwest;" parent="20" vertex="1">
                    <mxGeometry y="40" width="140" height="8" as="geometry"/>
                </mxCell>
                <mxCell id="24" value="provided interfaces" style="html=1;align=center;spacingLeft=4;verticalAlign=top;strokeColor=none;fillColor=none;" parent="20" vertex="1">
                    <mxGeometry y="48" width="140" height="25" as="geometry"/>
                </mxCell>
                <mxCell id="25" value="...&lt;br&gt;PrometheusPull" style="html=1;align=left;spacingLeft=4;verticalAlign=top;strokeColor=none;fillColor=none;" parent="20" vertex="1">
                    <mxGeometry y="73" width="140" height="47" as="geometry"/>
                </mxCell>
                <mxCell id="26" value="" style="line;strokeWidth=1;fillColor=none;align=left;verticalAlign=middle;spacingTop=-1;spacingLeft=3;spacingRight=3;rotatable=0;labelPosition=right;points=[];portConstraint=eastwest;" parent="20" vertex="1">
                    <mxGeometry y="120" width="140" height="8" as="geometry"/>
                </mxCell>
                <mxCell id="29" value="" style="fontStyle=1;align=center;verticalAlign=top;childLayout=stackLayout;horizontal=1;horizontalStack=0;resizeParent=1;resizeParentMax=0;resizeLast=0;marginBottom=0;" parent="1" vertex="1">
                    <mxGeometry x="290" y="270" width="140" height="193" as="geometry"/>
                </mxCell>
                <mxCell id="30" value="时序建模模块" style="html=1;align=left;spacingLeft=4;verticalAlign=top;strokeColor=none;fillColor=none;" parent="29" vertex="1">
                    <mxGeometry width="140" height="40" as="geometry"/>
                </mxCell>
                <mxCell id="31" value="" style="shape=module;jettyWidth=10;jettyHeight=4;" parent="30" vertex="1">
                    <mxGeometry x="1" width="16" height="20" relative="1" as="geometry">
                        <mxPoint x="-25" y="9" as="offset"/>
                    </mxGeometry>
                </mxCell>
                <mxCell id="32" value="" style="line;strokeWidth=1;fillColor=none;align=left;verticalAlign=middle;spacingTop=-1;spacingLeft=3;spacingRight=3;rotatable=0;labelPosition=right;points=[];portConstraint=eastwest;" parent="29" vertex="1">
                    <mxGeometry y="40" width="140" height="8" as="geometry"/>
                </mxCell>
                <mxCell id="33" value="provided interfaces" style="html=1;align=center;spacingLeft=4;verticalAlign=top;strokeColor=none;fillColor=none;" parent="29" vertex="1">
                    <mxGeometry y="48" width="140" height="25" as="geometry"/>
                </mxCell>
                <mxCell id="34" value="AddService&lt;br&gt;DeleteService&lt;br&gt;AddModel&lt;br&gt;" style="html=1;align=left;spacingLeft=4;verticalAlign=top;strokeColor=none;fillColor=none;" parent="29" vertex="1">
                    <mxGeometry y="73" width="140" height="57" as="geometry"/>
                </mxCell>
                <mxCell id="35" value="" style="line;strokeWidth=1;fillColor=none;align=left;verticalAlign=middle;spacingTop=-1;spacingLeft=3;spacingRight=3;rotatable=0;labelPosition=right;points=[];portConstraint=eastwest;" parent="29" vertex="1">
                    <mxGeometry y="130" width="140" height="8" as="geometry"/>
                </mxCell>
                <mxCell id="36" value="required interfaces" style="html=1;align=center;spacingLeft=4;verticalAlign=top;strokeColor=none;fillColor=none;" parent="29" vertex="1">
                    <mxGeometry y="138" width="140" height="25" as="geometry"/>
                </mxCell>
                <mxCell id="37" value="FetchSerialData" style="html=1;align=left;spacingLeft=4;verticalAlign=top;strokeColor=none;fillColor=none;" parent="29" vertex="1">
                    <mxGeometry y="163" width="140" height="30" as="geometry"/>
                </mxCell>
                <mxCell id="38" value="" style="fontStyle=1;align=center;verticalAlign=top;childLayout=stackLayout;horizontal=1;horizontalStack=0;resizeParent=1;resizeParentMax=0;resizeLast=0;marginBottom=0;" parent="1" vertex="1">
                    <mxGeometry x="490" y="450" width="140" height="173" as="geometry"/>
                </mxCell>
                <mxCell id="39" value="数据收集模块" style="html=1;align=left;spacingLeft=4;verticalAlign=top;strokeColor=none;fillColor=none;" parent="38" vertex="1">
                    <mxGeometry width="140" height="40" as="geometry"/>
                </mxCell>
                <mxCell id="40" value="" style="shape=module;jettyWidth=10;jettyHeight=4;" parent="39" vertex="1">
                    <mxGeometry x="1" width="16" height="20" relative="1" as="geometry">
                        <mxPoint x="-25" y="9" as="offset"/>
                    </mxGeometry>
                </mxCell>
                <mxCell id="41" value="" style="line;strokeWidth=1;fillColor=none;align=left;verticalAlign=middle;spacingTop=-1;spacingLeft=3;spacingRight=3;rotatable=0;labelPosition=right;points=[];portConstraint=eastwest;" parent="38" vertex="1">
                    <mxGeometry y="40" width="140" height="8" as="geometry"/>
                </mxCell>
                <mxCell id="42" value="provided interfaces" style="html=1;align=center;spacingLeft=4;verticalAlign=top;strokeColor=none;fillColor=none;" parent="38" vertex="1">
                    <mxGeometry y="48" width="140" height="25" as="geometry"/>
                </mxCell>
                <mxCell id="43" value="FetchSerialData&lt;br&gt;PrometheusReload" style="html=1;align=left;spacingLeft=4;verticalAlign=top;strokeColor=none;fillColor=none;" parent="38" vertex="1">
                    <mxGeometry y="73" width="140" height="37" as="geometry"/>
                </mxCell>
                <mxCell id="44" value="" style="line;strokeWidth=1;fillColor=none;align=left;verticalAlign=middle;spacingTop=-1;spacingLeft=3;spacingRight=3;rotatable=0;labelPosition=right;points=[];portConstraint=eastwest;" parent="38" vertex="1">
                    <mxGeometry y="110" width="140" height="8" as="geometry"/>
                </mxCell>
                <mxCell id="45" value="required interfaces" style="html=1;align=center;spacingLeft=4;verticalAlign=top;strokeColor=none;fillColor=none;" parent="38" vertex="1">
                    <mxGeometry y="118" width="140" height="25" as="geometry"/>
                </mxCell>
                <mxCell id="46" value="PrometheusPull" style="html=1;align=left;spacingLeft=4;verticalAlign=top;strokeColor=none;fillColor=none;" parent="38" vertex="1">
                    <mxGeometry y="143" width="140" height="30" as="geometry"/>
                </mxCell>
                <mxCell id="47" value="" style="fontStyle=1;align=center;verticalAlign=top;childLayout=stackLayout;horizontal=1;horizontalStack=0;resizeParent=1;resizeParentMax=0;resizeLast=0;marginBottom=0;" parent="1" vertex="1">
                    <mxGeometry x="290" y="480" width="140" height="210" as="geometry"/>
                </mxCell>
                <mxCell id="48" value="模型应用模块" style="html=1;align=left;spacingLeft=4;verticalAlign=top;strokeColor=none;fillColor=none;" parent="47" vertex="1">
                    <mxGeometry width="140" height="40" as="geometry"/>
                </mxCell>
                <mxCell id="49" value="" style="shape=module;jettyWidth=10;jettyHeight=4;" parent="48" vertex="1">
                    <mxGeometry x="1" width="16" height="20" relative="1" as="geometry">
                        <mxPoint x="-25" y="9" as="offset"/>
                    </mxGeometry>
                </mxCell>
                <mxCell id="50" value="" style="line;strokeWidth=1;fillColor=none;align=left;verticalAlign=middle;spacingTop=-1;spacingLeft=3;spacingRight=3;rotatable=0;labelPosition=right;points=[];portConstraint=eastwest;" parent="47" vertex="1">
                    <mxGeometry y="40" width="140" height="8" as="geometry"/>
                </mxCell>
                <mxCell id="51" value="provided interfaces" style="html=1;align=center;spacingLeft=4;verticalAlign=top;strokeColor=none;fillColor=none;" parent="47" vertex="1">
                    <mxGeometry y="48" width="140" height="25" as="geometry"/>
                </mxCell>
                <mxCell id="52" value="AddService&lt;br&gt;DeleteService&lt;br&gt;AddModel" style="html=1;align=left;spacingLeft=4;verticalAlign=top;strokeColor=none;fillColor=none;" parent="47" vertex="1">
                    <mxGeometry y="73" width="140" height="57" as="geometry"/>
                </mxCell>
                <mxCell id="53" value="" style="line;strokeWidth=1;fillColor=none;align=left;verticalAlign=middle;spacingTop=-1;spacingLeft=3;spacingRight=3;rotatable=0;labelPosition=right;points=[];portConstraint=eastwest;" parent="47" vertex="1">
                    <mxGeometry y="130" width="140" height="8" as="geometry"/>
                </mxCell>
                <mxCell id="54" value="required interfaces" style="html=1;align=center;spacingLeft=4;verticalAlign=top;strokeColor=none;fillColor=none;" parent="47" vertex="1">
                    <mxGeometry y="138" width="140" height="25" as="geometry"/>
                </mxCell>
                <mxCell id="55" value="ReadEstimatedQPS&lt;br&gt;FetchSerialData" style="html=1;align=left;spacingLeft=4;verticalAlign=top;strokeColor=none;fillColor=none;" parent="47" vertex="1">
                    <mxGeometry y="163" width="140" height="47" as="geometry"/>
                </mxCell>
                <mxCell id="56" value="" style="fontStyle=1;align=center;verticalAlign=top;childLayout=stackLayout;horizontal=1;horizontalStack=0;resizeParent=1;resizeParentMax=0;resizeLast=0;marginBottom=0;" parent="1" vertex="1">
                    <mxGeometry x="290" y="70" width="140" height="183" as="geometry"/>
                </mxCell>
                <mxCell id="57" value="扩缩容执行模块" style="html=1;align=left;spacingLeft=4;verticalAlign=top;strokeColor=none;fillColor=none;" parent="56" vertex="1">
                    <mxGeometry width="140" height="40" as="geometry"/>
                </mxCell>
                <mxCell id="58" value="" style="shape=module;jettyWidth=10;jettyHeight=4;" parent="57" vertex="1">
                    <mxGeometry x="1" width="16" height="20" relative="1" as="geometry">
                        <mxPoint x="-25" y="9" as="offset"/>
                    </mxGeometry>
                </mxCell>
                <mxCell id="59" value="" style="line;strokeWidth=1;fillColor=none;align=left;verticalAlign=middle;spacingTop=-1;spacingLeft=3;spacingRight=3;rotatable=0;labelPosition=right;points=[];portConstraint=eastwest;" parent="56" vertex="1">
                    <mxGeometry y="40" width="140" height="8" as="geometry"/>
                </mxCell>
                <mxCell id="60" value="provided interfaces" style="html=1;align=center;spacingLeft=4;verticalAlign=top;strokeColor=none;fillColor=none;" parent="56" vertex="1">
                    <mxGeometry y="48" width="140" height="25" as="geometry"/>
                </mxCell>
                <mxCell id="61" value="LaunchpressureTest&lt;br&gt;ReadEstimatedQPS" style="html=1;align=left;spacingLeft=4;verticalAlign=top;strokeColor=none;fillColor=none;" parent="56" vertex="1">
                    <mxGeometry y="73" width="140" height="47" as="geometry"/>
                </mxCell>
                <mxCell id="62" value="" style="line;strokeWidth=1;fillColor=none;align=left;verticalAlign=middle;spacingTop=-1;spacingLeft=3;spacingRight=3;rotatable=0;labelPosition=right;points=[];portConstraint=eastwest;" parent="56" vertex="1">
                    <mxGeometry y="120" width="140" height="8" as="geometry"/>
                </mxCell>
                <mxCell id="63" value="required interfaces" style="html=1;align=center;spacingLeft=4;verticalAlign=top;strokeColor=none;fillColor=none;" parent="56" vertex="1">
                    <mxGeometry y="128" width="140" height="25" as="geometry"/>
                </mxCell>
                <mxCell id="64" value="Kubernetes.Deployment" style="html=1;align=left;spacingLeft=4;verticalAlign=top;strokeColor=none;fillColor=none;" parent="56" vertex="1">
                    <mxGeometry y="153" width="140" height="30" as="geometry"/>
                </mxCell>
                <mxCell id="66" style="edgeStyle=none;html=1;exitX=1;exitY=0.14;exitDx=0;exitDy=0;entryX=1;entryY=0.75;entryDx=0;entryDy=0;exitPerimeter=0;" parent="1" source="19" target="43" edge="1">
                    <mxGeometry relative="1" as="geometry">
                        <Array as="points">
                            <mxPoint x="660" y="340"/>
                            <mxPoint x="660" y="551"/>
                        </Array>
                    </mxGeometry>
                </mxCell>
                <mxCell id="67" style="edgeStyle=none;html=1;exitX=1;exitY=0.5;exitDx=0;exitDy=0;entryX=0;entryY=0.5;entryDx=0;entryDy=0;" parent="1" source="46" target="25" edge="1">
                    <mxGeometry relative="1" as="geometry">
                        <Array as="points">
                            <mxPoint x="700" y="610"/>
                            <mxPoint x="700" y="377"/>
                        </Array>
                    </mxGeometry>
                </mxCell>
                <mxCell id="68" style="edgeStyle=none;html=1;exitX=0;exitY=0.5;exitDx=0;exitDy=0;" parent="1" source="19" edge="1">
                    <mxGeometry relative="1" as="geometry">
                        <mxPoint x="490" y="530" as="targetPoint"/>
                        <Array as="points">
                            <mxPoint x="470" y="377"/>
                            <mxPoint x="470" y="540"/>
                        </Array>
                    </mxGeometry>
                </mxCell>
                <mxCell id="69" style="edgeStyle=none;html=1;exitX=1;exitY=0.75;exitDx=0;exitDy=0;entryX=0;entryY=0.25;entryDx=0;entryDy=0;" parent="1" source="55" target="43" edge="1">
                    <mxGeometry relative="1" as="geometry">
                        <Array as="points">
                            <mxPoint x="470" y="678"/>
                            <mxPoint x="470" y="542"/>
                        </Array>
                    </mxGeometry>
                </mxCell>
                <mxCell id="70" style="edgeStyle=none;html=1;exitX=1;exitY=0.25;exitDx=0;exitDy=0;entryX=0;entryY=0.25;entryDx=0;entryDy=0;" parent="1" source="37" target="43" edge="1">
                    <mxGeometry relative="1" as="geometry">
                        <Array as="points">
                            <mxPoint x="470" y="441"/>
                            <mxPoint x="470" y="540"/>
                        </Array>
                    </mxGeometry>
                </mxCell>
                <mxCell id="71" value="" style="html=1;rounded=0;" parent="1" vertex="1">
                    <mxGeometry x="630" y="180" width="30" height="30" as="geometry"/>
                </mxCell>
                <mxCell id="72" value="" style="endArrow=none;html=1;rounded=0;align=center;verticalAlign=top;endFill=0;labelBackgroundColor=none;endSize=2;" parent="1" source="71" edge="1">
                    <mxGeometry relative="1" as="geometry">
                        <mxPoint x="740" y="195" as="targetPoint"/>
                    </mxGeometry>
                </mxCell>
                <mxCell id="73" value="" style="ellipse;html=1;fontSize=11;align=center;fillColor=none;points=[];aspect=fixed;resizable=0;verticalAlign=bottom;labelPosition=center;verticalLabelPosition=top;flipH=1;" parent="1" vertex="1">
                    <mxGeometry x="740" y="191" width="8" height="8" as="geometry"/>
                </mxCell>
                <mxCell id="74" style="edgeStyle=none;html=1;exitX=0;exitY=0.25;exitDx=0;exitDy=0;entryX=1;entryY=0.25;entryDx=0;entryDy=0;" parent="1" source="19" target="61" edge="1">
                    <mxGeometry relative="1" as="geometry">
                        <Array as="points">
                            <mxPoint x="470" y="350"/>
                            <mxPoint x="470" y="155"/>
                        </Array>
                    </mxGeometry>
                </mxCell>
                <mxCell id="75" style="edgeStyle=none;html=1;exitX=1;exitY=0.25;exitDx=0;exitDy=0;entryX=1;entryY=0.5;entryDx=0;entryDy=0;" parent="1" source="55" target="61" edge="1">
                    <mxGeometry relative="1" as="geometry">
                        <Array as="points">
                            <mxPoint x="450" y="655"/>
                            <mxPoint x="450" y="170"/>
                        </Array>
                    </mxGeometry>
                </mxCell>
                <mxCell id="76" style="edgeStyle=none;html=1;exitX=0;exitY=0.5;exitDx=0;exitDy=0;entryX=1;entryY=0.5;entryDx=0;entryDy=0;" parent="1" source="64" target="7" edge="1">
                    <mxGeometry relative="1" as="geometry">
                        <Array as="points">
                            <mxPoint x="260" y="238"/>
                            <mxPoint x="260" y="366"/>
                        </Array>
                    </mxGeometry>
                </mxCell>
                <mxCell id="77" style="edgeStyle=none;html=1;exitX=0.007;exitY=0.654;exitDx=0;exitDy=0;entryX=1;entryY=0.25;entryDx=0;entryDy=0;exitPerimeter=0;" parent="1" source="19" target="34" edge="1">
                    <mxGeometry relative="1" as="geometry">
                        <Array as="points">
                            <mxPoint x="460" y="390"/>
                            <mxPoint x="460" y="357"/>
                        </Array>
                    </mxGeometry>
                </mxCell>
                <mxCell id="78" style="edgeStyle=none;html=1;entryX=1;entryY=0.25;entryDx=0;entryDy=0;" parent="1" target="52" edge="1">
                    <mxGeometry relative="1" as="geometry">
                        <mxPoint x="490" y="390" as="sourcePoint"/>
                        <Array as="points">
                            <mxPoint x="460" y="390"/>
                            <mxPoint x="460" y="567"/>
                        </Array>
                    </mxGeometry>
                </mxCell>
                <mxCell id="79" style="edgeStyle=none;html=1;exitX=0;exitY=0.75;exitDx=0;exitDy=0;entryX=1;entryY=0.5;entryDx=0;entryDy=0;" parent="1" source="19" target="34" edge="1">
                    <mxGeometry relative="1" as="geometry">
                        <Array as="points">
                            <mxPoint x="450" y="390"/>
                        </Array>
                    </mxGeometry>
                </mxCell>
                <mxCell id="80" style="edgeStyle=none;html=1;exitX=0;exitY=0.75;exitDx=0;exitDy=0;entryX=1;entryY=0.5;entryDx=0;entryDy=0;" parent="1" source="19" target="52" edge="1">
                    <mxGeometry relative="1" as="geometry"/>
                </mxCell>
                <mxCell id="81" style="edgeStyle=none;html=1;entryX=1;entryY=0.75;entryDx=0;entryDy=0;" parent="1" target="34" edge="1">
                    <mxGeometry relative="1" as="geometry">
                        <mxPoint x="491" y="366" as="sourcePoint"/>
                    </mxGeometry>
                </mxCell>
                <mxCell id="82" style="edgeStyle=none;html=1;exitX=0;exitY=0.5;exitDx=0;exitDy=0;entryX=1;entryY=0.75;entryDx=0;entryDy=0;" parent="1" source="19" target="52" edge="1">
                    <mxGeometry relative="1" as="geometry">
                        <Array as="points">
                            <mxPoint x="480" y="420"/>
                            <mxPoint x="480" y="596"/>
                        </Array>
                    </mxGeometry>
                </mxCell>
            </root>
        </mxGraphModel>
    </diagram>
</mxfile>